# xmcd
#
# Track frame offsets: 
#        150
#        12205
#        25705
#        39012
#        51740
#        63055
#        73685
#        84860
#        96475
#        108885
#        121342
#        133852
#        148207
#        162140
#        175000
#        188645
#        202040
#        214137
#        227492
#        240800
#        253237
#        265215
#        278157
#        289800
#        303752
#        316107
#        329325
#        340805
#
# Disc length: 4703 seconds
#
# Revision: 1
# Processed by: cddbd v1.5.2PL0 Copyright (c) Steve Scherf et al.
# Submitted via: ExactAudioCopy v1.1
#
DISCID=88125d1c
DTITLE=The Carter Family - In The Shadow Of Clinch Mountain  -  CD10
DYEAR=2000
DGENRE=Country
TTITLE0=Bring Back My Boy  (1938)
TTITLE1=It Is Better Farther On  (1938)
TTITLE2=Charlie And Nellie  (1938)
TTITLE3=Cuban Soldier  (1938)
TTITLE4=Heart That Was Broken For Me  (1938)
TTITLE5=You're Nothing More To Me  (1938)
TTITLE6=Stern Old Bachelor  (1938)
TTITLE7=Little Joe  (1938)
TTITLE8=Reckless Motorman  (1938)
TTITLE9=You Denied Your Love  (1938)
TTITLE10=Oh Take Me Back  (1938)
TTITLE11=You Are My Flower  (1938)
TTITLE12=Who's That Knocking At My Window  (1938)
TTITLE13=They Call Her Mother  (1938)
TTITLE14=Coal Miner's Blues  (1938)
TTITLE15=Young Freda Bolt  (1938)
TTITLE16=Little Poplar Log House On The Hill  (1940)
TTITLE17=The Dying Mother  (1940)
TTITLE18=Buddies In The Saddle  (1940)
TTITLE19=Heaven's Radio  (1940)
TTITLE20=Beautiful Home  (1940)
TTITLE21=There'll Be No Distinction There  (1940)
TTITLE22=Give Him One More As He Goes  (1940)
TTITLE23=Lonesome For You Darling  (1940)
TTITLE24=Blackie's Gunman  (1940)
TTITLE25=You've Got To Righten That Wrong  (1940)
TTITLE26=Meeting In The Air  (1940)
TTITLE27=My Home Among The Hills  (1940)
EXTD=Bear Family CD 15865 LK
EXTT0=08-JUN-1938, Charlotte
EXTT1=08-JUN-1938, Charlotte
EXTT2=08-JUN-1938, Charlotte
EXTT3=08-JUN-1938, Charlotte
EXTT4=08-JUN-1938, Charlotte
EXTT5=08-JUN-1938, Charlotte
EXTT6=08-JUN-1938, Charlotte
EXTT7=08-JUN-1938, Charlotte
EXTT8=08-JUN-1938, Charlotte
EXTT9=08-JUN-1938, Charlotte
EXTT10=08-JUN-1938, Charlotte
EXTT11=08-JUN-1938, Charlotte
EXTT12=08-JUN-1938, Charlotte
EXTT13=08-JUN-1938, Charlotte
EXTT14=08-JUN-1938, Charlotte
EXTT15=08-JUN-1938, Charlotte
EXTT16=03-OCT-1940, Chicago
EXTT17=03-OCT-1940, Chicago
EXTT18=03-OCT-1940, Chicago
EXTT19=03-OCT-1940, Chicago
EXTT20=03-OCT-1940, Chicago
EXTT21=03-OCT-1940, Chicago
EXTT22=03-OCT-1940, Chicago
EXTT23=03-OCT-1940, Chicago
EXTT24=03-OCT-1940, Chicago
EXTT25=04-OCT-1940, Chicago
EXTT26=04-OCT-1940, Chicago
EXTT27=04-OCT-1940, Chicago
PLAYORDER=
